<svg xmlns="http://www.w3.org/2000/svg" xmlns:xlink="http://www.w3.org/1999/xlink" viewBox="0 0 164.95 164.96"><defs><style>.cls-1{fill:#ba1e1d;}.cls-2{fill:url(#Dégradé_sans_nom_213);}.cls-3{fill:url(#Dégradé_sans_nom_214);}.cls-4{fill:url(#Dégradé_sans_nom_215);}</style><linearGradient id="Dégradé_sans_nom_213" x1="-3.84" y1="-1.62" x2="67.29" y2="66.71" gradientUnits="userSpaceOnUse"><stop offset="0.68" stop-color="#ba1e1d"/><stop offset="0.93" stop-color="#450e14"/></linearGradient><linearGradient id="Dégradé_sans_nom_214" x1="139.83" y1="193.46" x2="96.65" y2="79.95" gradientUnits="userSpaceOnUse"><stop offset="0.75" stop-color="#ba1e1d"/><stop offset="1" stop-color="#450e14"/></linearGradient><linearGradient id="Dégradé_sans_nom_215" x1="48.91" y1="31.11" x2="122.58" y2="127.7" gradientUnits="userSpaceOnUse"><stop offset="0.65" stop-color="#ba1e1d"/><stop offset="0.93" stop-color="#450e14"/></linearGradient></defs><g id="Calque_2" data-name="Calque 2"><g id="Calque_2-2" data-name="Calque 2"><path class="cls-1" d="M82.47,0,0,82.48,22.72,105.2c.19-.12,2-1.26,7.73-6L13.68,82.48l68.79-68.8,20.25,20.24c3.36-4,5.93-7.35,5.93-7.35.34.22.68.42,1,.6Z"/><path class="cls-2" d="M82.47,0,0,82.48,22.72,105.2c.19-.12,2-1.26,7.73-6L13.68,82.48l68.79-68.8,20.25,20.24c3.36-4,5.93-7.35,5.93-7.35.34.22.68.42,1,.6Z"/><path class="cls-1" d="M165,82.48l-45.9,45.9-2.53,2.53L82.47,165,48.86,131.34a36.57,36.57,0,0,0,9.07-4.6l24.54,24.54,24-24,7.87-7.87,4.09-4.09,32.85-32.85-14.95-15c3.18-3.68,5.11-6,5.26-6.2h0a10.76,10.76,0,0,0,.89-1.3Z"/><path class="cls-1" d="M22.72,105.2s0,0,0,0l.1.06Z"/><path class="cls-1" d="M140.23,45.53A47.76,47.76,0,0,0,136,48.28s-2.27-2.88-5.44-2.65a6,6,0,0,1,1.25,3.72,4.22,4.22,0,0,1-1.64,3.35,58.14,58.14,0,0,1-5.7,3c-2.45,1.18-4.72,2.22-4.72,2.22a29.87,29.87,0,0,1-1.06-8c0-3.49.84-7.38,3.61-10.06.21-.2.42-.39.65-.58,4.45-3.61,5.8,3.14,5.8,3.14s4.19-17.26-9.19-24.29c-.46-.25-2,.07-3.46.83-2.11,1.14-6.74,5.17-4.45,6.65,3.79,2.46,5.37-.73,5.37-.73s-.21,6.36-7.38,2.32c-.31-.18-.65-.38-1-.6,0,0-2.57,3.37-5.93,7.35C98.21,39.25,92.27,45.7,89.19,46.64c-8.19,2.49-14.7-.23-21.94,11.53S48.39,84.35,36.16,94.55C33.92,96.42,32,98,30.45,99.25c-5.78,4.69-7.54,5.83-7.73,6l.08.08c1,.62,10.17,6,19.78,6.11,5.55,0,11.24-1.66,15.63-7.08,5-7.23.91-10.63.91-10.63s.66,4.65-7.89,8.42a11.53,11.53,0,0,1-8.75.18L59.74,88s6.82,12.09.66,18.89c-5.32,5.87-10.11,7.43-14.37,8-4.48.55-8.38,0-11.72,2l14.12,14.12.43.43a36.57,36.57,0,0,0,9.07-4.6c5.91-4.23,17.14-13.41,19.35-37.69,2-22.09,19.31-36.56,29.91-38.82,0,0-17,18.25-11.7,31.61,2.59-.52,7.05-7.47,16.53-7.08-8.72,9.51-14.69,18.86-11.16,37.51,1.5,7.92,2.12,12.9,1.15,19.47l13.85-13.84c-3.85-8.52-5.69-18-2.69-24.45,5.81-12.52,18-19.86,23.16-25.92,3.18-3.68,5.11-6,5.26-6.2h0a10.76,10.76,0,0,0,.89-1.3C144,57.47,146.3,51.59,140.23,45.53ZM77.6,59.37c2.1-1.92,4.4-6.64,4.4-6.64,4-.85,6.45-1.55,6.6-1.59C84.78,59.89,77.6,59.37,77.6,59.37Z"/><path class="cls-3" d="M165,82.48l-45.9,45.9-2.53,2.53L82.47,165,48.86,131.34a36.57,36.57,0,0,0,9.07-4.6l24.54,24.54,24-24,7.87-7.87,4.09-4.09,32.85-32.85-14.95-15c3.18-3.68,5.11-6,5.26-6.2h0a10.76,10.76,0,0,0,.89-1.3Z"/><path class="cls-4" d="M140.23,45.53A47.76,47.76,0,0,0,136,48.28s-2.27-2.88-5.44-2.65a6,6,0,0,1,1.25,3.72,4.22,4.22,0,0,1-1.64,3.35,58.14,58.14,0,0,1-5.7,3c-2.45,1.18-4.72,2.22-4.72,2.22a29.87,29.87,0,0,1-1.06-8c0-3.49.84-7.38,3.61-10.06.21-.2.42-.39.65-.58,4.45-3.61,5.8,3.14,5.8,3.14s4.19-17.26-9.19-24.29c-.46-.25-2,.07-3.46.83-2.11,1.14-6.74,5.17-4.45,6.65,3.79,2.46,5.37-.73,5.37-.73s-.79,7.49-7.23,2.36c-.29-.23-.65-.56-1-.86,0,0-2.74,3.59-6.1,7.57C98.21,39.25,92.27,45.7,89.19,46.64c-8.19,2.49-14.7-.23-21.94,11.53S48.39,84.35,36.16,94.55C33.92,96.42,32,98,30.45,99.25c-5.78,4.69-7.54,5.83-7.73,6l.08.08c1,.62,10.17,6,19.78,6.11,5.55,0,11.24-1.66,15.63-7.08,5-7.23.91-10.63.91-10.63s.66,4.65-7.89,8.42a11.53,11.53,0,0,1-8.75.18L59.74,88s6.82,12.09.66,18.89c-5.32,5.87-10.11,7.43-14.37,8-4.48.55-8.38,0-11.72,2l14.12,14.12.43.43a36.57,36.57,0,0,0,9.07-4.6c5.91-4.23,17.14-13.41,19.35-37.69,2-22.09,19.31-36.56,29.91-38.82,0,0-17,18.25-11.7,31.61,2.59-.52,7.05-7.47,16.53-7.08-8.72,9.51-14.69,18.86-11.16,37.51,1.5,7.92,2.12,12.9,1.15,19.47l13.85-13.84c-3.85-8.52-5.69-18-2.69-24.45,5.81-12.52,18-19.86,23.16-25.92,3.18-3.68,5.11-6,5.26-6.2h0a10.76,10.76,0,0,0,.89-1.3C144,57.47,146.3,51.59,140.23,45.53ZM77.6,59.37c2.1-1.92,4.4-6.64,4.4-6.64,4-.85,6.45-1.55,6.6-1.59C84.78,59.89,77.6,59.37,77.6,59.37Z"/></g></g></svg>